<?xml version="1.0" encoding="UTF-8" standalone="no"?>
<!-- Creator: CorelDRAW -->

<svg
   xmlns:dc="http://purl.org/dc/elements/1.1/"
   xmlns:cc="http://creativecommons.org/ns#"
   xmlns:rdf="http://www.w3.org/1999/02/22-rdf-syntax-ns#"
   xmlns:svg="http://www.w3.org/2000/svg"
   xmlns="http://www.w3.org/2000/svg"
   xmlns:sodipodi="http://sodipodi.sourceforge.net/DTD/sodipodi-0.dtd"
   xmlns:inkscape="http://www.inkscape.org/namespaces/inkscape"
   xml:space="preserve"
   width="210mm"
   height="210mm"
   style="clip-rule:evenodd;fill-rule:evenodd;image-rendering:optimizeQuality;shape-rendering:geometricPrecision;text-rendering:geometricPrecision"
   viewBox="0 0 210 297"
   version="1.1"
   id="svg74"
   sodipodi:docname="logo.svg"
   inkscape:version="0.92.3 (2405546, 2018-03-11)"><metadata
   id="metadata78"><rdf:RDF><cc:Work
       rdf:about=""><dc:format>image/svg+xml</dc:format><dc:type
         rdf:resource="http://purl.org/dc/dcmitype/StillImage" /><dc:title></dc:title></cc:Work></rdf:RDF></metadata><sodipodi:namedview
   pagecolor="#ffffff"
   bordercolor="#666666"
   borderopacity="1"
   objecttolerance="10"
   gridtolerance="10"
   guidetolerance="10"
   inkscape:pageopacity="0"
   inkscape:pageshadow="2"
   inkscape:window-width="1855"
   inkscape:window-height="1056"
   id="namedview76"
   showgrid="false"
   inkscape:zoom="0.4204826"
   inkscape:cx="111.71626"
   inkscape:cy="499.53464"
   inkscape:window-x="65"
   inkscape:window-y="24"
   inkscape:window-maximized="1"
   inkscape:current-layer="svg74" />
 <defs
   id="defs4">
  <style
   type="text/css"
   id="style2">
   <![CDATA[
    .str0 {stroke:#1F1A17;stroke-width:0.2}
    .fil0 {fill:none}
    .fil1 {fill:#1F1A17}
    .fil3 {fill:white}
    .fil2 {fill:#F7B512}
   ]]>
  </style>
 </defs>
 <g
   id="Слой_x0020_1"
   transform="matrix(1.5649252,0,0,1.4670873,-51.388324,-52.429005)">
  <metadata
   id="CorelCorpID_0Corel-Layer" />
  <g
   id="_145336232">
   <path
   id="_145336184"
   class="fil0 str0"
   d="m 60.1668,43.8518 -28.034,90.1853 -4.5708,14.803 -3.9977,12.099 -9.7596,38.7677 c -1.0463,5.8934 -1.0539,11.9581 -0.4191,17.9099 0.4943,4.6348 2.6823,9.9318 7.1128,12.0816 3.8496,1.8679 8.6068,1.7456 12.2627,-0.501 3.3883,-2.0822 6.2474,-4.9927 8.6321,-8.1555 l 5.9532,-9.2896 c 0.4349,-0.6915 0.8483,-1.4105 1.5247,-1.8685 5.7283,-3.8788 12.4295,-7.417 19.5633,-5.8552 3.6594,0.8011 7.571,3.5941 8.3154,7.4516 0.7879,4.0827 -0.8392,8.0061 -0.7086,12.0625 0.0097,0.3023 0.0947,0.992 0.4271,1.2018 l 8.6047,4.8911 c 1.1872,0.5138 2.4912,0.7265 3.7779,0.8603 3.6551,0.38 7.1478,-0.8578 10.112,-2.9835 4.8802,-3.4997 7.7194,-8.8983 12.2522,-12.7576 3.0526,-2.5991 7.6814,-3.8086 11.6115,-3.2339 1.5766,0.2305 3.1034,1.4642 4.1004,2.606 3.5373,4.0508 5.4038,9.5412 9.648,12.9929 2.6098,2.1225 5.7551,3.0328 9.1073,2.5043 l 6.9004,-2.3188 2.4618,-0.7867 c 1.2351,-0.2244 2.1658,0.2269 2.7993,-1.144 l 0.607,-1.2363 1.2634,-4.504 0.4043,-3.3162 0.2656,-2.1786 -0.1642,-6.2461 -0.6584,-6.7132 -2.9521,-26.7365 3.6892,-54.9091 c 2.1058,-15.7265 8.3207,-30.5076 15.6371,-44.4565 l 11.6621,-19.6554 3.3174,-6.8241 c 0.3384,-0.9374 -0.9084,-2.1213 -1.5995,-2.4382 -3.2334,-1.4826 -7.1796,-1.3675 -10.6374,-1.2635 -3.8252,0.115 -8.0647,0.3606 -11.6951,1.7496 -2.8004,1.0714 -4.1943,3.309 -6.4835,5.3571 L 126.948,79.4283 102.6201,96.7098 c -3.573,2.3057 -7.9296,4.5492 -12.3356,4.1709 -5.3809,-0.462 -9.8061,-4.3146 -13.6344,-7.7381 -4.151,-3.7121 -3.935,-10.7969 -3.0805,-15.6771 l 6.1126,-21.2569 4.5606,-15.0102 c 0.2981,-1.6883 -1.179,-2.9715 -2.784,-2.7578 l -3.2906,0.5469 -6.1436,-0.0681 -13.1239,0.8604 c -1.0181,-0.1721 -2.0378,0.418 -2.3743,1.4282 l -19.1513,62.2079 -14.1537,47.1751 -6.6456,21.2852 -6.7873,40.3913 c -0.2203,3.7293 0.7884,7.4323 1.8024,11.0278 1.0764,3.8167 4.028,7.3884 7.5955,9.0978 4.7404,2.2714 10.5642,2.0566 15.041,-0.711 7.111,-4.3961 11.3971,-11.6593 15.5022,-18.6859 0.2171,-0.3716 0.3837,-0.7336 0.7418,-0.9724 l 7.8899,-4.4633 c 3.4696,-1.435 7.7842,-2.1025 11.3219,-0.4937 2.0818,0.9467 4.268,2.5259 4.7223,4.9079 0.753,3.948 -0.8975,7.8174 -0.6338,11.7592 0.0491,0.7342 0.3049,1.9113 0.9257,2.4334 3.4054,2.8641 7.5206,5.0279 11.8452,6.0958 3.2467,0.8017 6.9709,0.4127 9.9843,-1.0184 2.6334,-1.2507 4.943,-3.1085 7.0171,-5.1572 4.1643,-4.1135 6.8745,-10.213 12.7751,-12.2274 2.3601,-0.8057 6.023,-1.7112 8.206,0.138 4.6374,3.9284 6.4122,10.3141 11.2553,14.0872 2.9189,2.274 6.3855,3.2215 10.0635,2.5701 l 7.1318,-2.5816 2.1784,-0.7681 1.4408,-0.1147 c 0.8564,-0.1015 1.5028,-0.6919 1.8454,-1.4855 l 0.5947,-1.3251 1.0992,-4.6871 -0.0157,-3.3753 -0.01,-2.1768 -0.4892,-6.1942 -0.8716,-6.6581 -3.5235,-26.8117 2.9845,-55.263 c 1.5496,-12.6504 5.8122,-24.7127 10.9876,-36.2927 l 12.7933,-23.6399 3.2315,-5.3029 2.156,-3.7825 0.6069,-1.5158 -0.002,-0.0011 -0.7658,-0.2882 -4.4803,-0.5737 c -4.4817,-0.1466 -9.0583,0.169 -13.4182,1.2565 -3.3096,0.8255 -3.7958,2.5187 -6.718,5.1804 l -47.0174,37.8188 -15.9201,10.3951 c -2.9385,1.4671 -6.3612,2.3403 -9.6642,2.0805 C 83.7546,104.0575 78.5359,99.9429 74.0685,95.9118 68.9048,91.2524 68.6808,83.2059 69.7159,76.8871 l 8.3211,-28.3423 1.4612,-5.1196 0.1211,-0.496 -1.0133,0.1735 -3.0023,0.1636 -3.9881,-0.1921 z"
   inkscape:connector-curvature="0"
   style="fill:none;stroke:#1f1a17;stroke-width:0.2" />
  </g>
  <path
   class="fil0"
   d="m 58.548,41.8816 c -10.6273,31.8966 -29.6554,97.2691 -33.6224,109.273 -6.5946,19.9545 -28.0546,81.8375 2.0887,81.3002 11.9884,-0.2137 21.9762,-20.9727 21.9762,-20.9727 0,0 15.4021,-12.7404 25.0415,-2.8155 4.4084,4.539 -1.2018,14.7476 1.7577,16.9782 12.8251,9.6668 21.714,7.0462 30.3188,-3.9563 2.978,-3.8079 6.8457,-9.6857 15.7027,-9.4827 9.4536,0.2166 9.8152,26.3047 30.968,15.484 3.8756,-1.9825 4.2098,0.8004 5.9637,-3.4302 4.4827,-10.8122 -2.4426,-33.9875 -2.8261,-49.7989 -0.5094,-21.0053 1.602,-53.4569 6.4774,-70.116 8.8415,-30.2107 26.8735,-51.7774 27.1042,-55.8269 0.198,-3.4741 -20.9594,-2.475 -23.8616,0.5952 -8.8503,9.3622 -35.2613,30.4044 -51.0618,41.5292 C 97.8786,102.3978 90.7791,108.9028 75.3592,94.5274 64.1637,84.0902 78.6953,56.2476 81.4963,43.878 82.9132,37.6206 83.3302,42.1304 71.82,40.997 66.267,40.4502 62.425,40.756 58.548,41.8818 Z"
   id="path9"
   inkscape:connector-curvature="0"
   style="fill:none" />
  <g
   id="_145335776">
   <path
   id="_145335920"
   class="fil0 str0"
   d="m 92.8487,136.437 c -0.4838,-2.9092 -0.6964,-5.898 -1.8764,-8.6008 -2.8439,-6.5138 -8.9815,-11.4136 -15.986,-12.669 -8.4372,-1.5122 -17.2737,2.1697 -21.8244,9.5066 -1.4301,2.3058 -2.4034,4.9127 -2.7981,7.5971 -0.4036,2.7452 -0.3736,5.5803 0.0397,8.3241 1.2459,8.2706 7.7255,15.0781 15.8738,16.9068 8.5372,1.916 17.5808,-1.5692 22.589,-8.7568 1.6119,-2.3134 2.7974,-4.9441 3.4189,-7.6947 -0.2159,1.4016 -0.5185,2.7804 -1.0458,4.1004 -2.7183,6.8044 -8.8842,12.0257 -16.0391,13.6017 -9.0736,1.9987 -18.6015,-1.6768 -24.0391,-9.2005 -1.8014,-2.4925 -3.1865,-5.3228 -3.9151,-8.3106 -0.7706,-3.1604 -0.7407,-6.4424 0.0397,-9.6004 2.1944,-8.8797 9.66,-16.089 18.6994,-17.6957 8.959,-1.5924 18.2634,2.2749 23.2396,9.9414 1.5833,2.4393 2.7086,5.1962 3.2402,8.0553 l 0.3837,4.4951 h 0.0103 c -0.1832,1.3595 -0.3077,2.7343 -0.4973,4.0919 l 0.4767,-4.0919 z m -0.5635,4.6133 0.033,-0.1483 0.0435,-0.3731 c -0.0243,0.1741 -0.0498,0.3479 -0.0765,0.5214 z"
   inkscape:connector-curvature="0"
   style="fill:none;stroke:#1f1a17;stroke-width:0.2" />
  </g>
  <circle
   class="fil0"
   cx="70.610703"
   cy="136.437"
   r="22.2379"
   id="circle13"
   style="fill:none" />
  <g
   id="_145335608">
   <path
   id="_145335416"
   class="fil0 str0"
   d="m 149.34,135.399 c -0.5744,-3.5113 -0.8214,-7.1176 -2.2361,-10.3822 -3.4165,-7.8836 -10.8198,-13.8247 -19.281,-15.3718 -10.2386,-1.8721 -20.9621,2.5663 -26.542,11.4318 -1.7618,2.7992 -2.9753,5.966 -3.4869,9.2337 -0.5244,3.3497 -0.4944,6.8206 0.0397,10.1688 1.601,10.0361 9.5224,18.2864 19.4354,20.4686 10.3388,2.276 21.27,-1.9656 27.3066,-10.6819 1.8427,-2.6608 3.2191,-5.6666 3.9873,-8.812 -0.2585,1.5169 -0.6153,3.0077 -1.192,4.4402 -3.2909,8.1742 -10.7226,14.4366 -19.3341,16.3043 -10.8752,2.3587 -22.2899,-2.0732 -28.7567,-11.1257 -2.1331,-2.986 -3.7586,-6.3763 -4.6039,-9.9472 -0.8914,-3.7653 -0.8614,-7.6822 0.0397,-11.4451 2.5492,-10.6452 11.4567,-19.297 22.2611,-21.2574 10.7605,-1.9524 21.9527,2.6713 27.9572,11.8666 1.9151,2.9328 3.2797,6.2499 3.929,9.6919 l 0.4767,5.4174 h 0.0103 c -0.0809,0.5886 -0.1527,1.1796 -0.2222,1.7712 l 0.2016,-1.7712 z m -0.777,6.055 c 0.0542,-0.2219 0.1054,-0.4444 0.1535,-0.6676 l 0.4116,-3.6162 c -0.1686,1.4333 -0.3242,2.8699 -0.5651,4.2838 z"
   inkscape:connector-curvature="0"
   style="fill:none;stroke:#1f1a17;stroke-width:0.2" />
  </g>
  <circle
   class="fil0"
   cx="122.525"
   cy="135.399"
   r="26.815001"
   id="circle17"
   style="fill:none" />
  <circle
   class="fil0 str0"
   cx="80.6717"
   cy="129.252"
   r="7.1853499"
   id="circle19"
   style="fill:none;stroke:#1f1a17;stroke-width:0.2" />
  <circle
   class="fil0 str0"
   cx="134.198"
   cy="122.841"
   r="8.6454"
   id="circle21"
   style="fill:none;stroke:#1f1a17;stroke-width:0.2" />
  <path
   class="fil1 str0"
   d="m 122.525,162.214 c -14.807,0 -26.815,-12.008 -26.815,-26.815 0,-14.807 12.008,-26.815 26.815,-26.815 13.1924,0 24.163,9.5321 26.3986,22.0831 l -0.0603,-0.6855 c -0.6493,-3.442 -2.0139,-6.7591 -3.929,-9.6919 -6.0045,-9.1953 -17.1967,-13.819 -27.9572,-11.8666 -10.8044,1.9604 -19.7119,10.6122 -22.2611,21.2574 -0.9011,3.7629 -0.9311,7.6798 -0.0397,11.4451 0.8453,3.5709 2.4708,6.9612 4.6039,9.9472 6.4668,9.0525 17.8815,13.4844 28.7567,11.1257 8.6115,-1.8677 16.0432,-8.1301 19.3341,-16.3043 0.401,-0.9961 0.6957,-2.0204 0.925,-3.0621 -3.2236,11.1923 -13.5428,19.3819 -25.771,19.3819 z"
   id="path23"
   inkscape:connector-curvature="0"
   style="fill:#1f1a17;stroke:#1f1a17;stroke-width:0.2" />
  <path
   class="fil1 str0"
   d="m 122.525,162.214 c -14.807,0 -26.815,-12.008 -26.815,-26.815 0,-14.807 12.008,-26.815 26.815,-26.815 13.1924,0 24.163,9.5321 26.3986,22.0831 l -0.0603,-0.6855 c -0.6493,-3.442 -2.0139,-6.7591 -3.929,-9.6919 -6.0045,-9.1953 -17.1967,-13.819 -27.9572,-11.8666 -10.8044,1.9604 -19.7119,10.6122 -22.2611,21.2574 -0.9011,3.7629 -0.9311,7.6798 -0.0397,11.4451 0.8453,3.5709 2.4708,6.9612 4.6039,9.9472 6.4668,9.0525 17.8815,13.4844 28.7567,11.1257 8.6115,-1.8677 16.0432,-8.1301 19.3341,-16.3043 0.401,-0.9961 0.6957,-2.0204 0.925,-3.0621 -3.2236,11.1923 -13.5428,19.3819 -25.771,19.3819 z"
   id="path25"
   inkscape:connector-curvature="0"
   style="fill:#1f1a17;stroke:#1f1a17;stroke-width:0.2" />
  <g
   id="_49267056">
   <path
   id="_49268376"
   class="fil1 str0"
   d="m 117.269,160.948 -4.6317,-1.6344 c 0.3402,0.1579 0.6838,0.3084 1.0304,0.4511 z M 98.8349,142.0632 c 3.4884,11.5597 16.0343,20.0033 28.1041,17.6502 5.8163,-1.1339 10.6557,-4.9744 14.2488,-9.5233 l 2.552,-3.7362 2.0669,-3.9751 1.2795,-3.3477 c -1.082,-1.1 -0.8494,-2.9318 -0.9879,-4.4845 l -0.3717,-6.4874 c -1.4487,-6.5104 -6.7486,-11.8753 -12.698,-14.6346 -9.4005,-4.3599 -21.3264,-2.4547 -28.3739,5.3609 -2.9676,3.291 -4.9838,7.2208 -5.8325,11.5862 -0.6328,3.2549 -0.5365,6.6238 -0.2158,9.9242 0.0546,0.5616 0.1312,1.1176 0.2285,1.6673 z m 50.8869,-2.7741 c -0.004,0.4931 -0.0796,0.997 -0.088,1.3885 l -0.009,0.4666 -6e-4,0.1142 c 0.0651,0.2673 0.0344,0.5499 -0.1282,0.7785 l -1.6495,4.402 -2.5849,4.3025 -2.6369,3.084 c -0.5803,0.5944 -1.1922,1.1591 -1.8313,1.6928 -3.4893,3.8432 -7.8417,6.8641 -12.9556,8.098 -14.8374,3.5801 -30.459,-7.823 -33.61,-22.3488 -2.4636,-11.3566 2.4906,-23.4 12.1124,-29.8687 9.1661,-6.1623 21.2988,-6.5392 30.8245,-0.974 4.2748,2.4975 7.9051,6.1405 10.387,10.4244 1.6878,2.9132 2.6591,6.1767 3.4695,9.4445 0.3169,1.2779 -0.0807,2.6302 -0.1896,3.9423 -0.1367,1.6475 0.2394,3.5712 -0.8489,4.8156 -0.0774,0.0885 -0.1653,0.1677 -0.2612,0.2376 z"
   inkscape:connector-curvature="0"
   style="fill:#1f1a17;stroke:#1f1a17;stroke-width:0.2" />
  </g>
  <path
   class="fil0"
   d="m 117.269,160.948 c -9.913,-2.1822 -18.3423,-10.3646 -19.4354,-20.4686 -0.3626,-3.3517 -0.5641,-6.8191 -0.0397,-10.1688 0.5116,-3.2677 1.7251,-6.4345 3.4869,-9.2337 5.5799,-8.8655 16.3034,-13.3039 26.542,-11.4318 8.4612,1.5471 15.8646,7.4882 19.281,15.3718 1.4147,3.2645 0.8087,9.0057 1.3831,12.517 l 0.4366,-6.8667 c -2.2356,-12.551 -13.2062,-22.0831 -26.3986,-22.0831 -14.807,0 -26.815,12.008 -26.815,26.815 0,14.807 13.2974,26.815 26.815,26.815 13.5176,0 22.722,-12.2737 25.9456,-23.466 0.1004,-0.4563 0.0137,3.1681 0.0924,2.706 -0.7682,3.1454 -2.1446,6.1512 -3.9873,8.812 -6.0366,8.7163 -16.9678,12.9579 -27.3066,10.6819 z"
   id="path29"
   inkscape:connector-curvature="0"
   style="fill:none" />
  <path
   class="fil1 str0"
   d="m 48.3728,136.437 c 0,-12.2796 9.9583,-22.2379 22.2379,-22.2379 10.9812,0 20.1061,7.9637 21.9129,18.4296 l -0.0586,-0.6868 c -0.5316,-2.8591 -1.6569,-5.616 -3.2402,-8.0553 -4.9762,-7.6665 -14.2806,-11.5338 -23.2396,-9.9414 -9.0394,1.6067 -16.505,8.816 -18.6994,17.6957 -0.7804,3.158 -0.8103,6.44 -0.0397,9.6004 0.7286,2.9878 2.1137,5.8181 3.9151,8.3106 5.4376,7.5237 14.9655,11.1992 24.0391,9.2005 7.1549,-1.576 13.3208,-6.7973 16.0391,-13.6017 0.3651,-0.9139 0.6225,-1.8561 0.8179,-2.8144 -2.5855,9.4174 -11.2094,16.3386 -21.4466,16.3386 -12.2796,0 -22.2379,-9.9583 -22.2379,-22.2379 z"
   id="path31"
   inkscape:connector-curvature="0"
   style="fill:#1f1a17;stroke:#1f1a17;stroke-width:0.2" />
  <path
   class="fil1 str0"
   d="m 48.3728,136.437 c 0,-12.2796 9.9583,-22.2379 22.2379,-22.2379 10.9812,0 20.1061,7.9637 21.9129,18.4296 l -0.0586,-0.6868 c -0.5316,-2.8591 -1.6569,-5.616 -3.2402,-8.0553 -4.9762,-7.6665 -14.2806,-11.5338 -23.2396,-9.9414 -9.0394,1.6067 -16.505,8.816 -18.6994,17.6957 -0.7804,3.158 -0.8103,6.44 -0.0397,9.6004 0.7286,2.9878 2.1137,5.8181 3.9151,8.3106 5.4376,7.5237 14.9655,11.1992 24.0391,9.2005 7.1549,-1.576 13.3208,-6.7973 16.0391,-13.6017 0.3651,-0.9139 0.6225,-1.8561 0.8179,-2.8144 -2.5855,9.4174 -11.2094,16.3386 -21.4466,16.3386 -12.2796,0 -22.2379,-9.9583 -22.2379,-22.2379 z"
   id="path33"
   inkscape:connector-curvature="0"
   style="fill:#1f1a17;stroke:#1f1a17;stroke-width:0.2" />
  <path
   class="fil1 str0"
   d="m 48.3728,136.437 c 0,-12.2796 9.9583,-22.2379 22.2379,-22.2379 10.9812,0 20.1061,7.9637 21.9129,18.4296 l -0.0586,-0.6868 c -0.5316,-2.8591 -1.6569,-5.616 -3.2402,-8.0553 -4.9762,-7.6665 -14.2806,-11.5338 -23.2396,-9.9414 -9.0394,1.6067 -16.505,8.816 -18.6994,17.6957 -0.7804,3.158 -0.8103,6.44 -0.0397,9.6004 0.7286,2.9878 2.1137,5.8181 3.9151,8.3106 5.4376,7.5237 14.9655,11.1992 24.0391,9.2005 7.1549,-1.576 13.3208,-6.7973 16.0391,-13.6017 0.3651,-0.9139 0.6225,-1.8561 0.8179,-2.8144 -2.5855,9.4174 -11.2094,16.3386 -21.4466,16.3386 -12.2796,0 -22.2379,-9.9583 -22.2379,-22.2379 z"
   id="path35"
   inkscape:connector-curvature="0"
   style="fill:#1f1a17;stroke:#1f1a17;stroke-width:0.2" />
  <g
   id="_49267128">
   <path
   id="_49267464"
   class="fil1 str0"
   d="m 50.0774,136.435 c 0.3197,-2.9115 0.37,-5.8852 1.3582,-8.6424 0.6508,-1.8157 1.5527,-3.5366 2.6653,-5.1059 -1.7099,1.8868 -3.0907,4.0628 -4.0126,6.4265 -0.9118,2.3377 -1.5453,4.8287 -1.5229,7.3379 0.0488,5.4474 2.4337,10.5325 6.144,14.3337 -1.3509,-1.7211 -2.4477,-3.6481 -3.2156,-5.6924 -1.0339,-2.7522 -1.1051,-5.7376 -1.4486,-8.6574 z m 40.0665,4.7186 c 0.1726,-0.9018 0.3569,-2.7853 1.1049,-3.8093 -0.6843,-1.1912 -0.5605,-2.864 -1.0267,-4.2218 -2.5375,-7.3907 -7.5983,-14.6751 -15.5796,-16.7805 -7.8471,-2.07 -16.3318,1.3752 -20.8198,8.0533 -1.5429,2.2959 -2.6404,4.9033 -3.217,7.6088 l -0.5283,4.4309 h 0.0322 c 0.4944,2.8574 0.7259,5.7929 1.8882,8.4496 3.2483,7.4245 10.774,12.3628 18.8898,12.1917 3.5205,-0.0742 7.3275,-1.1653 10.1284,-3.3731 2.8325,-2.2327 4.8633,-5.2828 6.8421,-8.2981 0.8396,-1.2794 1.5518,-2.9037 2.2858,-4.2515 z m 4.0777,-3.4236 c 0.2091,0.424 0.2679,0.913 0.0912,1.3294 l -0.054,0.1266 0.0045,0.004 c 1.7131,1.4753 -0.346,4.5993 -1.277,6.6595 -1.6224,3.5901 -3.8814,6.9506 -6.8863,9.4985 -6.9141,5.8627 -16.5634,7.3504 -24.9563,4.1323 -7.6082,-2.9172 -13.9273,-9.7474 -15.7249,-17.7923 -2.437,-10.9065 3.4841,-22.1719 13.2736,-27.2173 6.6073,-3.4053 14.2304,-3.5346 20.9826,-0.4631 4.9885,2.2692 9.3705,6.1637 12.2206,10.8438 1.7617,2.893 2.4313,5.8748 2.6357,9.2213 0.0744,1.2176 0.4802,2.6249 -0.2591,3.5951 -0.0162,0.0213 -0.0331,0.0421 -0.0506,0.0625 z"
   inkscape:connector-curvature="0"
   style="fill:#1f1a17;stroke:#1f1a17;stroke-width:0.2" />
  </g>
  <path
   class="fil0"
   d="m 50.0773,136.435 c 0,-12.2796 8.9577,-21.5953 20.5881,-21.5953 11.6304,0 20.3763,11.2109 22.1831,21.6768 l -0.3835,-4.5738 c -0.2429,-2.8979 -1.6678,-5.5953 -3.407,-7.9258 -5.3079,-7.1127 -14.1139,-11.6633 -23.0728,-10.0709 -9.0394,1.6066 -16.505,8.816 -18.6994,17.6957 -0.7804,3.158 -0.8103,6.44 -0.0397,9.6004 0.7286,2.9878 2.1137,5.8181 3.9151,8.3106 5.4376,7.5237 14.9655,11.1992 24.0391,9.2005 7.1549,-1.576 13.3208,-6.7974 16.0391,-13.6017 0.365,-0.9139 1.0146,-5.8523 1.3607,-6.6677 -3.7006,11.0104 -10.4542,19.5383 -21.7126,19.5383 -11.2584,0 -20.8102,-9.3075 -20.8102,-21.5871 z"
   id="path39"
   inkscape:connector-curvature="0"
   style="fill:none" />
  <path
   class="fil1 str0"
   d="m 80.6717,122.067 c -3.9677,0 -7.1854,3.2177 -7.1854,7.1853 0,3.9677 3.2177,7.1854 7.1854,7.1854 3.9676,0 7.1853,-3.2177 7.1853,-7.1854 0,-3.9676 -3.2177,-7.1853 -7.1853,-7.1853 z"
   id="path41"
   inkscape:connector-curvature="0"
   style="fill:#1f1a17;stroke:#1f1a17;stroke-width:0.2" />
  <g
   id="_49266120">
   <path
   id="_49267152"
   class="fil1 str0"
   d="M 24.9257,151.154 58.2722,41.707 c 0.0195,-0.0585 0.126,-0.1314 0.1849,-0.1391 l 13.3987,-0.9343 6.4908,0.03 3.5146,-0.5839 c 1.1403,-0.055 0.6209,1.479 0.484,2.0246 l -8.6996,27.9454 c -1.4606,5.4474 -2.4688,11.2578 -1.594,16.8925 0.9161,5.9002 5.7729,9.6803 10.751,12.5078 -2.536,-1.5005 -4.8575,-3.4866 -6.9063,-5.4646 -4.3589,-4.2083 -4.707,-11.2637 -3.4136,-16.8328 l 6.1174,-21.2731 4.529,-14.8778 c 0.2064,-0.6884 -0.5027,-1.4527 -1.1768,-1.4575 -1.2741,-0.0092 -2.5263,0.5083 -3.7965,0.5739 l -6.0571,-0.0704 -13.3863,0.847 c -0.3139,0.0136 -0.5613,0.0082 -0.8179,0.2294 l -0.1218,0.1248 -0.0991,0.1468 -0.0731,0.1673 -9.5687,31.0814 -9.5733,31.0962 -7.0769,23.5876 -10.4033,34.2421 -1.3187,6.0576 5.2558,-16.4773 z m 59.0942,-51.0313 c 0.6196,0.3339 1.2362,0.6547 1.8425,0.9643 1.3235,0.6757 2.8446,0.9067 4.326,1.0237 4.6786,0.3696 9.248,-1.9545 13.0406,-4.429 l 4.9862,-3.7185 -7.8731,5.4193 c -4.4429,2.5174 -9.4874,3.4612 -14.3301,1.6293 -0.6763,-0.2558 -1.3406,-0.5548 -1.9921,-0.8891 z m 47.0039,-23.1693 11.1946,-8.3485 5.8828,-5.0529 -3.6616,3.0393 z m 37.7306,13.6673 -5.2831,14.0387 -1.5817,6.4331 -1.371,7.5093 -2.0689,17.1239 -0.7087,13.1211 -0.7101,13.1496 0.001,-0.0398 -0.3744,6.804 -0.237,6.1911 0.916,9.6639 1.7301,10.4666 1.649,10.4852 0.5186,7.7318 2.5792,1.2856 1.1091,0.5528 -0.4968,-5.4193 -0.6791,-7.4067 -2.3003,-15.0481 -2.3143,-15.3514 2.2317,-25.6849 3.4373,-37.6084 z m -149.384,78.3355 -2.2007,10.1095 -4.2931,25.3687 -1.2528,10.7353 c 0.2488,2.5465 0.9405,5.0698 1.6287,7.5408 0.9413,3.3798 3.5355,6.5949 6.7005,8.1079 4.2196,2.0171 9.4104,1.8419 13.3922,-0.6315 6.1096,-3.7952 9.7603,-9.7437 13.5913,-15.6349 0.6653,-1.0231 0.9493,-2.2872 1.7262,-3.2283 0.7091,-0.8591 1.6998,-1.4637 2.6815,-1.9902 3.3621,-1.8031 6.7261,-3.7194 10.4527,-4.5362 4.7637,-1.0442 10.463,0.3502 13.328,4.5472 1.7023,2.4937 1.0916,5.984 0.7958,8.7424 -0.2213,2.0638 -0.8169,4.1659 -0.4033,6.2433 0.0641,0.3223 0.2817,0.7397 0.5696,0.9198 l 8.809,4.9061 c 4.764,2.01 10.2918,0.6246 14.3133,-2.3072 5.5086,-4.0159 8.2878,-10.8152 14.2192,-14.2813 2.7363,-1.599 6.2314,-2.3353 9.3703,-1.9077 1.5517,0.2113 3.0684,1.4209 4.0573,2.5318 l 8.1153,11.2868 c 2.7818,3.045 6.5295,4.6468 10.677,3.9294 l 6.7838,-2.397 2.5612,-0.8607 c 0.4425,-0.0882 1.5122,0.1313 1.9092,-0.2442 1.1456,-1.0836 1.6676,-3.5015 1.9686,-4.8072 0.2985,-1.2945 -0.0229,-2.7917 0.7207,-3.8926 0.4797,-0.7102 1.2397,0.1492 1.3357,0.5953 0.1006,0.4677 0.0893,1.6069 -0.007,2.0758 l -1.0858,4.6902 -0.0503,0.1488 -0.2954,0.6634 -0.2955,0.6634 0.005,-0.0108 -0.4005,0.711 -0.5567,0.601 -0.3366,0.2449 c -0.6133,0.4096 -1.2612,0.3965 -1.9637,0.4907 l -6.2402,2.0874 -5.1007,1.6526 c -0.9756,0.1491 -1.9788,0.005 -2.9465,-0.1891 -1.3726,-0.275 -2.7646,-0.6144 -3.985,-1.3001 -2.2168,-1.2455 -4.1158,-2.9883 -5.7566,-4.9307 l -5.1043,-7.5191 c -1.7206,-2.199 -3.3044,-4.3478 -6.2571,-3.9901 -2.7678,0.3353 -5.3004,1.1874 -7.5158,2.9197 -3.5183,2.751 -5.605,6.9047 -8.7714,10.0045 -4.0041,3.9199 -9.3622,7.5595 -15.2819,6.896 -5.793,-0.6493 -10.9645,-3.3432 -15.3736,-7.0733 -0.653,-0.5525 -0.9651,-2.0608 -0.9567,-2.8294 l 0.5021,-6.1157 c 0.2133,-2.3174 0.9636,-5.3742 -0.7631,-7.3466 -2.6828,-3.0646 -7.2589,-3.6787 -11.0163,-2.5981 l -2.5799,0.8573 -3.8204,2.171 -3.9127,2.2134 -0.021,0.0261 -0.0571,0.0807 -0.1153,0.1882 -6.862,10.7264 c -3.7909,4.7173 -8.707,9.9554 -15.0672,10.8262 -4.63,0.6339 -9.2451,-0.2838 -12.9976,-3.1667 -2.5979,-1.9958 -4.5109,-4.9456 -5.4379,-8.0686 C 9.4036,219.8985 8.2572,216.0425 8.66,212.2004 l 6.8009,-40.512 6.6814,-21.4349 14.15,-47.1629 19.1615,-62.2402 c 0.2951,-0.9215 1.0343,-1.6763 1.935,-2.018 l 0.5457,-0.1551 0.5715,-0.0582 0.3696,0.0286 6.5136,-0.427 6.5619,-0.4302 3.1583,0.0317 4.5192,-0.2241 c 1.7316,-0.2152 3.3081,-0.6693 4.7148,0.6872 0.6131,0.5913 1.2643,1.7413 1.0649,2.6582 L 83.0448,49.032 77.713,67.1493 74.1408,81.4639 c -0.1944,2.0347 0.106,4.1044 0.5808,6.0925 0.7887,3.3028 3.0628,5.239 5.6341,7.2994 3.7329,2.9912 8.0115,5.6399 13.0142,4.7433 3.0732,-0.5508 6.082,-2.0941 8.6371,-3.8399 L 126.293,78.506 159.7839,51.1275 c 2.2054,-1.8316 3.8811,-4.6756 6.7952,-5.5377 l 12.0652,-1.8238 c 2.7259,-0.2053 5.7034,-0.1507 8.3778,0.4526 2.0591,0.4645 4.1473,1.2105 4.9594,3.3002 0.1651,0.4248 0.1894,1.0437 -0.003,1.4636 l -3.3639,6.9344 -11.7066,19.738 c -3.4633,6.8742 -6.2378,14.0898 -7.9715,21.5894 l -3.0875,23.4939 -4.4634,51.3698 4.6023,29.8963 0.6904,7.5076 0.5792,8.0247 c -0.0532,0.3921 -0.5521,0.6879 -0.9457,0.6468 l -0.5822,-0.1161 -2.9252,-1.458 -1.6293,-0.8121 -0.215,0.3926 c -0.4511,0.3297 -1.3551,0.4148 -1.5535,-0.1076 -1.2199,-3.2109 -0.5118,-6.8199 -0.9348,-10.2286 l -3.3741,-20.9151 -0.6968,-16.3341 0.3708,-6.7299 1.4203,-26.299 2.092,-17.3274 c 1.8212,-12.3278 5.9247,-23.9347 11.0822,-35.2477 l 12.9489,-23.519 3.2698,-5.2818 2.1985,-3.7948 0.7604,-1.9127 -0.0942,-0.0892 -0.2409,-0.1522 c -2.928,-1.1698 -6.3593,-1.0764 -9.4466,-0.9788 l -9.6032,1.2019 c -0.9461,0.2304 -2.1389,0.5559 -2.8882,1.2384 l -9.5749,8.9042 -28.2779,22.7423 -24.5029,17.4191 c -4.5714,2.938 -10.5418,5.7651 -16.1296,4.1683 -5.0366,-1.4393 -8.9684,-4.5347 -12.8058,-8.0123 -2.9045,-2.6322 -4.4117,-7.1045 -4.3011,-10.9638 0.137,-4.7807 0.772,-9.5527 2.0341,-14.1658 l 8.8608,-27.9009 0.2344,-1.0045 0.0021,-0.0274 -0.059,0.0043 -6.1517,0.6889 -3.8152,-0.2051 -7.2049,-0.2047 -5.7815,1.0122 -4.3103,13.1619 -4.8894,15.4656 -10.2243,33.2238 -14.4483,47.1358 0.0103,0.003 z m -3.1611,14.5212 -1.9117,8.7815 -0.7516,6.4404 z m -4.7785,33.3461 -0.0929,0.7957 c 0.1681,2.7619 1.1259,5.4683 2.3881,7.9307 2.8192,5.5001 8.921,7.8644 14.838,7.0565 3.2362,-0.4419 6.2272,-2.3758 8.654,-4.5295 -1.1238,0.9629 -2.3145,1.8435 -3.5749,2.6148 -4.7315,2.8955 -11.2803,2.7439 -15.7891,-0.5598 -2.3163,-1.6972 -4.2595,-4.4966 -5.0185,-7.2748 -0.5418,-1.9831 -1.0842,-3.9996 -1.4047,-6.0336 z"
   inkscape:connector-curvature="0"
   style="fill:#1f1a17;stroke:#1f1a17;stroke-width:0.2" />
  </g>
  <path
   class="fil0"
   d="m 24.9256,151.154 c 3.967,-12.0037 22.9951,-77.3762 33.6224,-109.273 3.877,-1.1258 7.719,-1.4316 13.272,-0.8848 11.5102,1.1334 11.0931,-3.3763 9.6763,2.881 -2.8009,12.3695 -17.3325,40.2123 -6.1371,50.6494 15.4198,14.3753 22.5195,7.8703 39.2158,-3.8852 15.8004,-11.1247 42.2115,-32.167 51.0618,-41.5292 2.9022,-3.0702 24.0596,-4.0693 23.8616,-0.5952 -0.2307,4.0495 -18.2627,25.6162 -27.1042,55.8269 -2.302,7.8658 -3.9877,19.2522 -5.0724,31.2922 l -1.4203,26.2991 c -0.0834,4.4472 -0.7046,9.197 -0.6113,13.0437 0.2972,12.2571 5.1525,28.4206 4.9502,40.3384 l 0.1437,-1.1785 5.8504,2.916 -1.3642,-14.8799 -4.6111,-30.1651 4.4634,-51.3699 c 1.3735,-15.8074 3.1757,-32.0162 11.2131,-45.5625 l 11.6621,-19.6554 3.3174,-6.8241 c 0.3384,-0.9374 -0.9084,-2.1213 -1.5995,-2.4382 -3.2334,-1.4826 -7.1796,-1.3675 -10.6374,-1.2635 -3.8252,0.115 -8.0647,0.3606 -11.6951,1.7496 -2.8004,1.0714 -4.1943,3.309 -6.4835,5.3571 L 126.948,79.4277 102.6201,96.7092 c -3.573,2.3057 -7.9296,4.5492 -12.3356,4.1709 -5.3809,-0.462 -9.8061,-4.3146 -13.6344,-7.7381 -4.151,-3.7121 -3.935,-10.7969 -3.0805,-15.6771 L 79.6822,56.208 84.2428,41.1978 c 0.2981,-1.6883 -1.179,-2.9715 -2.784,-2.7578 l -3.2906,0.5469 -6.1436,-0.0681 -13.1239,0.8604 c -1.0181,-0.1721 -2.0378,0.418 -2.3743,1.4282 l -19.1513,62.2079 -14.1537,47.1751 -6.6456,21.2852 -6.7873,40.3913 c -0.2203,3.7293 0.7884,7.4323 1.8024,11.0278 1.0764,3.8167 4.028,7.3884 7.5955,9.0978 4.7404,2.2714 10.5642,2.0566 15.041,-0.711 7.111,-4.3961 11.3971,-11.6593 15.5022,-18.6859 0.2171,-0.3716 0.3837,-0.7336 0.7418,-0.9724 l 7.8899,-4.4633 c 3.4696,-1.435 7.7842,-2.1025 11.3219,-0.4937 2.0818,0.9467 4.268,2.5259 4.7223,4.9079 0.753,3.948 -0.8975,7.8174 -0.6338,11.7592 0.0491,0.7342 0.3049,1.9113 0.9257,2.4334 3.4054,2.8641 7.5206,5.0279 11.8452,6.0958 3.2467,0.8017 6.9709,0.4127 9.9843,-1.0184 2.6334,-1.2507 4.943,-3.1085 7.0171,-5.1572 4.1643,-4.1135 6.8745,-10.213 12.7751,-12.2274 2.3601,-0.8057 6.023,-1.7112 8.206,0.138 4.6374,3.9284 6.4122,10.3141 11.2553,14.0872 2.9189,2.274 6.3855,3.2215 10.0635,2.5701 l 7.1318,-2.5816 2.1784,-0.7681 1.4408,-0.1147 c 0.8564,-0.1015 1.5028,-0.6919 1.8454,-1.4855 l 0.5947,-1.3251 1.0992,-4.6871 -0.009,-1.8877 c -0.1922,2.4415 -0.6241,4.6246 -1.3825,6.4538 -1.7539,4.2306 -2.0881,1.4477 -5.9637,3.4302 -21.1528,10.8207 -21.5144,-15.2674 -30.968,-15.484 -8.857,-0.203 -12.7247,5.6748 -15.7027,9.4827 -8.6048,11.0025 -17.4937,13.6231 -30.3188,3.9563 -2.9595,-2.2306 2.6507,-12.4392 -1.7577,-16.9782 -9.6394,-9.9249 -25.0415,2.8155 -25.0415,2.8155 0,0 -9.9878,20.759 -21.9762,20.9727 -30.1433,0.5373 -8.6833,-61.3457 -2.0887,-81.3002 z"
   id="path45"
   inkscape:connector-curvature="0"
   style="fill:none" />
  <g
   id="_49266552">
   <path
   id="_49266672"
   class="fil1 str0"
   d="m 166.578,220.19 -0.0338,0.2773 -0.2051,1.0257 -0.2272,0.81 -1.013,4.592 c -1.1205,3.1947 -3.4101,5.6369 -6.6619,6.5696 l -1.1782,0.1983 -1.1192,0.063 -0.0278,6e-4 -0.1997,0.0897 -4.6156,1.9891 -4.4684,1.1329 c -4.2222,0.6468 -8.2466,-0.009 -12.0272,-1.9775 -5.9607,-3.1043 -9.0517,-9.3745 -12.6153,-14.701 l -0.7899,-1.0436 -0.3222,-0.3449 -1.3485,0.0389 -1.5176,0.3208 -1.2856,0.5299 c -4.0517,2.2611 -6.3528,6.9032 -9.6672,9.9907 -2.5948,2.4172 -5.4466,4.624 -8.6894,6.0594 -2.5355,1.1223 -5.1907,1.6339 -7.8529,1.6501 -1.7696,0.0815 -3.5438,-0.0661 -5.2096,-0.5199 -0.3111,-0.0847 -0.6189,-0.1782 -0.9238,-0.2792 -3.9213,-1.0287 -7.6609,-2.9848 -10.8357,-5.482 -1.715,-1.0594 -3.1935,-2.3386 -3.9818,-4.3724 -1.5545,-4.0104 0.0628,-8.4631 0.3157,-12.5618 0.0444,-0.7205 0.1128,-1.481 -0.4327,-2.0006 -1.9622,-1.869 -4.9136,-2.0529 -7.4398,-1.3766 l -1.7621,0.5269 -3.7768,1.7423 -3.3821,2.0997 -0.1441,0.2279 -2.9766,4.6448 -7.9367,10.3715 c -2.9971,2.8914 -6.4351,5.4209 -10.4521,6.6095 -6.6806,1.9768 -14.2436,0.2039 -19.1524,-4.7716 -2.4206,-2.4535 -4.2893,-5.9485 -5.1466,-9.2394 -1.2322,-4.73 -1.7044,-9.6845 -1.3906,-14.5623 l 5.9269,-29.8743 7.0179,-25.9123 4.2431,-13.3222 30.3232,-97.5992 c 0.6197,-1.9321 2.135,-3.7064 4.0941,-4.3773 2.4587,-0.842 5.1417,-0.6626 7.7349,-0.8342 l 6.5218,-0.3966 1.994,0.096 1.6411,0.0791 1.1486,-0.0626 1.1055,-0.0602 0.1155,-0.0198 0.5066,-0.0868 3.361,0.2624 c 2.0633,0.8906 3.7014,2.6647 4.4579,4.7809 0.4463,1.2485 0.2065,2.8221 -0.1619,4.1235 l -5.6362,19.3406 -4.3669,17.3919 c -0.273,2.7406 0.3451,6.7652 2.5664,8.757 4.0739,3.6531 8.921,7.8115 14.7738,6.6406 4.1622,-0.8327 6.524,-3.2297 10.4084,-5.9347 l 30.9179,-23.7071 24.6021,-20.0525 2.9247,-2.8236 c 3.7053,-2.7825 8.6128,-3.408 13.0772,-3.7978 4.3054,-0.3759 8.4892,-0.301 12.708,0.4377 0.7753,0.1357 3.0332,0.6895 3.6316,1.3375 1.0663,1.1547 2.3433,2.1944 2.8195,3.6922 1.2197,3.8363 -1.5338,7.6731 -3.3424,10.7907 l -0.1022,0.1732 -1.6157,2.6515 -1.5233,2.4996 -6.3134,11.666 -6.1662,11.3526 -6.5809,17.0046 -2.7681,11.0921 -2.658,22.3649 c -0.7099,3.0344 -3.4849,5.8284 -6.5932,5.6046 -7.4877,-0.5392 -5.6874,-10.2553 -5.44,-14.7115 l 4.3499,-28.4846 13.7532,-30.7726 6.3966,-11.82 0.1758,-0.3057 0.5273,-0.8653 -0.0606,0.0022 -5.5974,0.9126 -0.2881,0.0865 -0.1314,0.1173 -1.11,1.1723 -2.2198,2.2148 -47.3383,38.0935 -16.4708,10.7949 c -6.1138,3.5733 -13.588,4.124 -20.2538,1.8027 -5.0939,-1.7739 -9.8597,-5.2995 -13.712,-9.012 -5.1597,-4.9725 -7.5879,-12.183 -7.1043,-19.3261 l 0.571,-5.9195 4.3487,-14.9972 3.1605,-10.7647 -4.0771,0.3153 -1.0196,0.0693 -12.6172,40.5895 -14.017,45.0926 -2.2816,7.3891 -4.3254,13.5796 -6.7394,24.9544 -5.5127,26.7595 c -0.2816,3.9371 -0.1653,9.7266 2.1945,13.4034 1.2487,1.9456 4.5327,2.6087 6.53,1.4774 6.3943,-3.6217 9.3642,-10.2898 13.3096,-16.1191 2.0322,-3.0025 4.8917,-4.7311 8.1379,-6.4356 5.9581,-3.1285 13.088,-5.5827 19.8896,-3.7816 4.5642,1.2086 8.9625,3.6628 11.522,7.7563 1.9284,3.0841 2.3761,6.087 2.4005,9.7252 l -0.378,3.7275 -0.3069,2.1103 1.0272,0.5817 4.3024,2.4456 -0.1271,-0.1778 1.2158,0.176 1.2556,-0.004 1.309,-0.2758 c 3.3732,-1.0701 5.5357,-3.9879 7.8009,-6.5019 l 6.8267,-7.3545 c 5.5025,-4.4146 13.2204,-6.4103 19.9886,-3.958 3.707,1.3431 6.2426,5.0499 8.3589,8.077 2.0497,2.9318 3.5177,6.8244 6.7283,8.7561 1.7722,1.0663 3.3641,0.1409 5.1105,-0.4485 l 5.4861,-1.8058 0.0304,-0.1084 0.4901,-1.7471 0.1386,-1.1373 0.2022,-1.6581 2.4209,-4.4498 c 2.793,-1.8984 6.8066,-1.609 9.404,0.5493 1.3259,1.1018 2.204,4.6591 1.8722,6.7608 z"
   inkscape:connector-curvature="0"
   style="fill:#1f1a17;stroke:#1f1a17;stroke-width:0.2" />
  </g>
  <path
   class="fil0"
   d="m 58.548,41.8816 c -10.6273,31.8966 -29.6554,97.2692 -33.6224,109.273 -6.5945,19.9545 -28.0545,81.8375 2.0887,81.3002 11.9884,-0.2136 21.9762,-20.9727 21.9762,-20.9727 0,0 15.4021,-12.7404 25.0415,-2.8155 4.4084,4.539 -1.2018,14.7476 1.7577,16.9782 12.8251,9.6668 21.714,7.0462 30.3188,-3.9563 2.978,-3.8079 6.8457,-9.6857 15.7027,-9.4827 9.4536,0.2166 9.8152,26.3047 30.968,15.484 3.8756,-1.9825 4.2098,0.8004 5.9637,-3.4302 0.7584,-1.8292 1.1903,-4.0123 1.3825,-6.4538 l -0.007,-1.4876 -0.4043,3.3162 -1.2634,4.504 -0.607,1.2363 c -0.6335,1.3709 -1.5642,0.9196 -2.7993,1.144 l -2.4618,0.7867 -6.9004,2.3188 c -3.3522,0.5285 -6.4975,-0.3818 -9.1073,-2.5043 -4.2442,-3.4517 -6.1107,-8.9421 -9.648,-12.9929 -0.997,-1.1418 -2.5238,-2.3755 -4.1004,-2.606 -3.9301,-0.5747 -8.5589,0.6348 -11.6115,3.2339 -4.5328,3.8593 -7.372,9.2579 -12.2522,12.7576 -2.9642,2.1257 -6.4569,3.3635 -10.112,2.9835 -1.2867,-0.1338 -2.5907,-0.3465 -3.7779,-0.8603 l -8.6047,-4.8911 c -0.3324,-0.2098 -0.4174,-0.8995 -0.4271,-1.2018 -0.1306,-4.0564 1.4965,-7.9798 0.7086,-12.0625 -0.7444,-3.8575 -4.656,-6.6505 -8.3154,-7.4516 -7.1338,-1.5618 -13.835,1.9764 -19.5633,5.8552 -0.6764,0.458 -1.0898,1.177 -1.5247,1.8685 l -5.9532,9.2896 c -2.3847,3.1628 -5.2438,6.0733 -8.6321,8.1555 -3.6559,2.2466 -8.4131,2.3689 -12.2627,0.501 -4.4305,-2.1498 -6.6185,-7.4468 -7.1128,-12.0816 -0.6348,-5.9518 -0.6272,-12.0165 0.4191,-17.9099 l 9.7596,-38.7677 3.9977,-12.099 4.5708,-14.803 28.034,-90.1853 11.4488,-0.7776 3.9881,0.1921 3.0023,-0.1636 1.0133,-0.1735 -0.1211,0.496 -1.4612,5.1196 -8.3211,28.3423 c -1.0351,6.3188 -0.8111,14.3653 4.3526,19.0247 4.4674,4.0311 9.6861,8.1457 15.9298,8.6369 3.303,0.2598 6.7257,-0.6134 9.6642,-2.0805 L 115.5826,92.0733 162.6,54.2545 c 2.9222,-2.6617 3.4084,-4.3549 6.718,-5.1804 4.3599,-1.0875 8.9365,-1.4031 13.4182,-1.2565 l 4.4803,0.5737 0.7658,0.2882 0.002,0.0011 -0.6069,1.5158 -2.156,3.7825 -3.2315,5.3029 -12.7933,23.6399 c -5.1754,11.58 -9.438,23.6423 -10.9876,36.2927 l -0.8869,16.4225 c 1.0847,-12.04 2.7704,-23.4264 5.0724,-31.2922 8.8415,-30.2107 26.8735,-51.7774 27.1042,-55.8269 0.198,-3.4741 -20.9594,-2.475 -23.8616,0.5952 -8.8503,9.3622 -35.2613,30.4044 -51.0618,41.5292 C 97.8786,102.3978 90.7791,108.9028 75.3592,94.5274 64.1637,84.0902 78.6953,56.2476 81.4963,43.878 82.9132,37.6206 83.3302,42.1304 71.82,40.997 66.267,40.4502 62.425,40.756 58.548,41.8818 Z"
   id="path49"
   inkscape:connector-curvature="0"
   style="fill:none" />
  <path
   class="fil1 str0"
   d="m 134.198,114.195 c -4.774,0 -8.6454,3.8714 -8.6454,8.6454 0,4.774 3.8714,8.6454 8.6454,8.6454 4.774,0 8.6454,-3.8714 8.6454,-8.6454 0,-4.774 -3.8714,-8.6454 -8.6454,-8.6454 z"
   id="path51"
   inkscape:connector-curvature="0"
   style="fill:#1f1a17;stroke:#1f1a17;stroke-width:0.2" />
  <path
   class="fil1 str0"
   d="m 155.902,161.936 -0.6773,12.5414 3.5235,26.8117 0.8716,6.6581 0.4892,6.1942 0.01,2.1768 0.1219,-1.0001 c 0.2023,-11.9178 -4.0263,-28.6002 -4.3236,-40.8574 -0.0933,-3.8468 -0.0987,-8.0775 -0.0153,-12.5247 z"
   id="path53"
   inkscape:connector-curvature="0"
   style="fill:#1f1a17;stroke:#1f1a17;stroke-width:0.2" />
  <path
   class="fil2 str0"
   d="m 155.224,174.477 0.6773,-12.5414 c 0.157,-8.3709 0.6284,-17.5091 1.4203,-26.2991 l 0.8869,-16.4225 c 1.5496,-12.6504 5.8122,-24.7127 10.9876,-36.2927 l 12.7933,-23.6399 3.2315,-5.3029 2.156,-3.7825 0.6069,-1.5158 -0.002,-0.0011 -0.7658,-0.2882 -4.4803,-0.5737 c -4.4817,-0.1466 -9.0585,0.1693 -13.4182,1.2565 -3.3093,0.8253 -11.4423,6.8489 -14.3182,9.5595 L 127.4395,84.6091 99.6623,102.468 c -2.7622,1.7759 -6.3615,2.3401 -9.6642,2.0805 C 83.7546,104.0576 78.5357,99.9427 74.0683,95.9116 68.9046,91.2522 68.6806,83.2057 69.7157,76.8869 l 8.3211,-28.3423 1.4612,-5.1196 0.1211,-0.496 -1.0133,0.1735 -3.0023,0.1636 -3.9881,-0.1921 -11.4488,0.7776 -28.034,90.1853 -4.5708,14.803 -3.9977,12.099 -9.7596,38.7677 c -1.0463,5.8934 -1.0539,11.9581 -0.4191,17.9099 0.4943,4.6348 2.6823,9.9318 7.1128,12.0816 3.8496,1.8679 8.6068,1.7456 12.2627,-0.501 3.3883,-2.0822 6.2474,-4.9927 8.6321,-8.1555 l 5.9532,-9.2896 c 0.4349,-0.6915 0.8483,-1.4105 1.5247,-1.8685 5.7283,-3.8788 12.4295,-7.417 19.5633,-5.8552 3.6594,0.8011 7.571,3.5941 8.3154,7.4516 0.7879,4.0827 -0.8392,8.0061 -0.7086,12.0625 0.0097,0.3023 0.0947,0.992 0.4271,1.2018 l 8.6047,4.8911 c 1.1872,0.5138 2.4912,0.7265 3.7779,0.8603 3.6551,0.38 7.1478,-0.8578 10.112,-2.9835 4.8802,-3.4997 7.7194,-8.8983 12.2522,-12.7576 3.0526,-2.5991 7.6814,-3.8086 11.6115,-3.2339 1.5766,0.2305 3.1034,1.4642 4.1004,2.606 3.5373,4.0508 5.4038,9.5412 9.648,12.9929 2.6098,2.1225 5.7551,3.0328 9.1073,2.5043 l 6.9004,-2.3188 2.4618,-0.7867 c 1.2351,-0.2244 2.1658,0.2269 2.7993,-1.144 l 0.607,-1.2363 1.2634,-4.504 0.4043,-3.3162 -0.01,-2.1768 -0.4892,-6.1942 -0.8716,-6.6581 z M 92.0571,142.3364 c -0.1954,0.9583 -0.4528,1.9005 -0.8179,2.8144 -2.7183,6.8044 -8.8842,12.0257 -16.0391,13.6017 -9.0736,1.9987 -18.6015,-1.6768 -24.0391,-9.2005 -1.8014,-2.4925 -3.1865,-5.3228 -3.9151,-8.3106 -0.7706,-3.1604 -0.7407,-6.4424 0.0397,-9.6004 2.1944,-8.8797 9.66,-16.0891 18.6994,-17.6957 8.959,-1.5924 18.2634,2.2749 23.2396,9.9414 0.56,0.8627 1.0626,1.7651 1.502,2.6977 0.9194,1.6704 1.5774,3.4717 1.7382,5.3576 l 0.0586,0.6868 c 0.2136,1.2371 0.3249,2.5091 0.325,3.8071 l 1e-4,0.001 h 0.0103 c -0.0035,0.0262 -0.007,0.0525 -0.0105,0.0787 -0.007,2.0145 -0.282,3.9659 -0.7912,5.8206 z m 35.9792,19.8623 c -10.8752,2.3587 -22.2899,-2.0732 -28.7567,-11.1257 -2.1331,-2.986 -3.7586,-6.3763 -4.6039,-9.9472 -0.8914,-3.7653 -0.8614,-7.6822 0.0397,-11.4451 2.5492,-10.6452 11.4567,-19.297 22.2611,-21.2574 10.7605,-1.9524 21.9527,2.6713 27.9572,11.8666 1.9151,2.9328 3.2797,6.2499 3.929,9.6919 l 0.0603,0.6855 c 0.0711,0.3992 0.4059,4.6327 0.4162,4.6327 -0.004,0.0254 0.004,0.1499 1e-4,0.1753 -0.1179,2.574 -1.3361,1.8554 -0.9022,6.6696 -0.2293,1.0417 -0.6657,2.7535 -1.0667,3.7495 -3.2908,8.1742 -10.7226,14.4366 -19.3341,16.3043 z"
   id="path55"
   inkscape:connector-curvature="0"
   style="fill:#f7b512;stroke:#1f1a17;stroke-width:0.2" />
  <path
   class="fil2 str0"
   d="m 158.82,141.549 -2.2101,32.8948 1.9192,17.3817 0.5384,3.2572 1.649,10.4852 0.2864,4.2697 c 1.2673,0.1588 2.501,0.6077 3.5565,1.3293 l -0.1328,-1.4481 -0.6791,-7.4067 -2.3003,-15.0481 -2.3143,-15.3514 2.2317,-25.6849 0.6408,-7.0111 c -0.841,1.0766 -1.9484,1.927 -3.1854,2.3324 z"
   id="path57"
   inkscape:connector-curvature="0"
   style="fill:#f7b512;stroke:#1f1a17;stroke-width:0.2" />
  <path
   class="fil1 str0"
   d="m 158.82,141.549 -2.2101,32.8948 1.9192,17.3817 0.5384,3.2572 1.649,10.4852 0.2864,4.2697 c 1.2673,0.1588 2.501,0.6077 3.5565,1.3293 l -0.1328,-1.4481 -0.6791,-7.4067 -2.3003,-15.0481 -2.3143,-15.3514 2.2317,-25.6849 0.6408,-7.0111 c -0.841,1.0766 -1.9484,1.927 -3.1854,2.3324 z"
   id="path59"
   inkscape:connector-curvature="0"
   style="fill:#1f1a17;stroke:#1f1a17;stroke-width:0.2" />
  <path
   class="fil1 str0"
   d="m 157.032,161.957 -0.001,0.0398 z m -0.4229,12.4867 2.2101,-32.8948 c -0.2272,0.0744 -0.4588,0.1339 -0.6939,0.177 l -0.3846,7.1213 -0.7087,13.1098 -0.001,0.0398 -0.373,6.7642 -0.237,6.1911 0.916,9.6639 1.1917,7.2094 z"
   id="path61"
   inkscape:connector-curvature="0"
   style="fill:#1f1a17;stroke:#1f1a17;stroke-width:0.2" />
  <path
   class="fil1 str0"
   d="m 50.0773,136.435 c 0,-9e-4 0,-0.002 0,-0.003 0,9e-4 0,0.002 0,0.003 z m 0.3262,4.1608 c -0.1278,-0.8481 -0.2189,-1.705 -0.2719,-2.5652 -0.0294,-0.429 -0.047,-0.8622 -0.0524,-1.2992 -0.0111,-0.0989 -0.0224,-0.1977 -0.034,-0.2964 h 0.0322 l -10e-5,-0.003 c -0.0086,-1.3943 0.0848,-2.7887 0.2865,-4.1606 0.1057,-0.7187 0.2528,-1.4319 0.4391,-2.1352 0.1557,-0.794 0.358,-1.5773 0.6327,-2.3439 0.6508,-1.8157 1.5527,-3.5366 2.6653,-5.1059 -1.7099,1.8868 -3.0907,4.0628 -4.0126,6.4265 -0.9118,2.3377 -1.5453,4.8287 -1.5229,7.3379 0.0488,5.4474 2.4337,10.5325 6.144,14.3337 -1.3509,-1.7211 -2.4477,-3.6481 -3.2156,-5.6924 -0.3383,-0.9006 -0.5736,-1.8262 -0.749,-2.7663 -0.1391,-0.5686 -0.2533,-1.1458 -0.3413,-1.7303 z"
   id="path63"
   inkscape:connector-curvature="0"
   style="fill:#1f1a17;stroke:#1f1a17;stroke-width:0.2" />
  <ellipse
   class="fil0 str0"
   cx="82.716003"
   cy="127.484"
   rx="2.0441999"
   ry="1.7678"
   id="ellipse65"
   style="fill:none;stroke:#1f1a17;stroke-width:0.2" />
  <path
   class="fil3 str0"
   d="m 82.716,125.716 c -1.1289,0 -2.0443,0.7916 -2.0443,1.7678 0,0.9762 0.9154,1.7678 2.0443,1.7678 1.1288,0 2.0442,-0.7916 2.0442,-1.7678 0,-0.9762 -0.9154,-1.7678 -2.0442,-1.7678 z"
   id="path67"
   inkscape:connector-curvature="0"
   style="fill:#ffffff;stroke:#1f1a17;stroke-width:0.2" />
  <ellipse
   class="fil0 str0"
   cx="135.526"
   cy="120.408"
   rx="2.3225999"
   ry="1.659"
   id="ellipse69"
   style="fill:none;stroke:#1f1a17;stroke-width:0.2" />
  <path
   class="fil3 str0"
   d="m 135.526,118.749 c -1.2825,0 -2.3226,0.7429 -2.3226,1.659 0,0.9161 1.0401,1.659 2.3226,1.659 1.2825,0 2.3226,-0.7429 2.3226,-1.659 0,-0.9161 -1.0401,-1.659 -2.3226,-1.659 z"
   id="path71"
   inkscape:connector-curvature="0"
   style="fill:#ffffff;stroke:#1f1a17;stroke-width:0.2" />
 </g>
<path
   style="fill:#ffffff;stroke-width:2.3782196"
   d="m 251.38755,471.32536 c -31.13543,-8.80191 -52.32107,-31.52425 -59.06988,-63.35451 -5.33282,-25.15184 3.4432,-51.23192 23.57696,-70.0647 17.27951,-16.16296 30.14232,-21.19528 54.6867,-21.39509 16.29678,-0.13267 22.60199,0.9091 32.53095,5.37489 6.77384,3.0467 14.16355,7.58089 16.42157,10.07598 3.94239,4.35629 3.8516,4.53653 -2.28503,4.53653 -10.56206,0 -22.48587,6.36413 -27.58077,14.72076 -19.31457,31.67968 25.61051,61.28006 51.16187,33.70969 3.21994,-3.47438 5.94462,-9.10382 6.05483,-12.50988 0.3376,-10.43315 10.06273,13.46946 10.05934,24.72403 -0.006,20.14673 -26.31534,57.12017 -48.84329,68.64139 -15.84984,8.1059 -39.47507,10.4141 -56.71325,5.54091 z"
   id="path50"
   inkscape:connector-curvature="0"
   transform="matrix(0.37419642,0,0,0.37419642,-43.5,0)" /><path
   style="fill:#ffffff;stroke-width:2.3782196"
   d="m 469.16268,483.17485 c -31.43743,-8.06509 -62.59443,-33.98648 -72.58,-60.38369 -10.16227,-26.86436 -3.09739,-66.92175 15.78037,-89.47359 11.11921,-13.28327 29.31588,-25.18007 46.49529,-30.39816 13.41287,-4.07403 20.69022,-4.81522 38.39815,-3.91081 12.01684,0.61375 25.03099,2.40819 28.92034,3.98765 l 7.07154,2.87173 -9.99518,4.47498 c -26.05345,11.66448 -26.37608,49.43572 -0.53317,62.41965 10.66062,5.35608 22.40112,5.20655 34.84594,-0.44381 10.57784,-4.80268 16.06128,-11.36335 18.8009,-22.49435 l 1.69552,-6.88888 3.67585,6.88888 c 2.02171,3.78888 4.95494,18.66106 6.51828,33.04929 2.81237,25.8837 2.77946,26.2849 -3.11118,37.92865 -13.80573,27.28916 -34.39662,47.79288 -58.8661,58.61689 -13.83925,6.12176 -40.94577,7.90408 -57.11655,3.75557 z"
   id="path52"
   inkscape:connector-curvature="0"
   transform="matrix(0.37419642,0,0,0.37419642,-43.5,0)" /></svg>